<svg width="337" height="133" viewBox="0 0 337 133" fill="none" xmlns="http://www.w3.org/2000/svg">
<circle cx="168.5" cy="12.5" r="12.5" fill="#5E5CC2"/>
<circle cx="168.5" cy="66.5" r="12.5" fill="#71B8FA"/>
<circle cx="168.5" cy="120.5" r="12.5" fill="#4DE8E8"/>
<circle cx="220.5" cy="66.5" r="12.5" fill="#71B8FA"/>
<circle cx="220.5" cy="120.5" r="12.5" fill="#4DE8E8"/>
<circle cx="64.5" cy="66.5" r="12.5" fill="#71B8FA"/>
<circle cx="64.5" cy="120.5" r="12.5" fill="#4DE8E8"/>
<circle cx="12.5" cy="120.5" r="12.5" fill="#4DE8E8"/>
<circle cx="272.5" cy="66.5" r="12.5" fill="#71B8FA"/>
<circle cx="272.5" cy="120.5" r="12.5" fill="#4DE8E8"/>
<circle cx="324.5" cy="120.5" r="12.5" fill="#4DE8E8"/>
<circle cx="116.5" cy="66.5" r="12.5" fill="#71B8FA"/>
<circle cx="116.5" cy="120.5" r="12.5" fill="#4DE8E8"/>
<line x1="168.5" y1="29" x2="168.5" y2="50" stroke="#D9D9D9"/>
<line x1="221.5" y1="83" x2="221.5" y2="104" stroke="#D9D9D9"/>
<line x1="116.5" y1="83" x2="116.5" y2="104" stroke="#D9D9D9"/>
<line x1="116.5" y1="42" x2="116.5" y2="50" stroke="#D9D9D9"/>
<line x1="168.5" y1="96" x2="168.5" y2="104" stroke="#D9D9D9"/>
<line x1="325.5" y1="96" x2="325.5" y2="104" stroke="#D9D9D9"/>
<line x1="64.5" y1="42" x2="64.5" y2="50" stroke="#D9D9D9"/>
<line x1="64.5" y1="96" x2="64.5" y2="104" stroke="#D9D9D9"/>
<line x1="12.5" y1="96" x2="12.5" y2="104" stroke="#D9D9D9"/>
<line x1="221.5" y1="42" x2="221.5" y2="50" stroke="#D9D9D9"/>
<line x1="273.5" y1="42" x2="273.5" y2="50" stroke="#D9D9D9"/>
<line x1="273.5" y1="96" x2="273.5" y2="104" stroke="#D9D9D9"/>
<line x1="64" y1="41.5" x2="274" y2="41.5" stroke="#D9D9D9"/>
<line x1="221" y1="95.5" x2="326" y2="95.5" stroke="#D9D9D9"/>
<line x1="12" y1="95.5" x2="169" y2="95.5" stroke="#D9D9D9"/>
</svg>
