<svg width="318" height="133" viewBox="0 0 318 133" fill="none" xmlns="http://www.w3.org/2000/svg">
<rect width="133" height="133" rx="10" fill="white"/>
<mask id="mask0_45_217" style="mask-type:alpha" maskUnits="userSpaceOnUse" x="5" y="5" width="123" height="123">
<rect x="5" y="5" width="123" height="123" rx="8" fill="#D9D9D9"/>
</mask>
<g mask="url(#mask0_45_217)">
<rect x="5" y="5" width="123" height="123" rx="8" fill="#71B8FA"/>
<circle cx="131" cy="58" r="99" fill="#D9D9D9"/>
<rect x="5" y="104" width="123" height="24" fill="#5E5CC2"/>
<path d="M75.845 120V111.329H79.862C80.4427 111.329 80.9757 111.398 81.461 111.537C81.9463 111.676 82.3363 111.923 82.631 112.278C82.9343 112.625 83.086 113.119 83.086 113.76C83.086 114.159 82.9733 114.497 82.748 114.774C82.5227 115.043 82.254 115.255 81.942 115.411C81.63 115.567 81.3397 115.68 81.071 115.749L80.772 115.164C81.3527 115.164 81.8423 115.255 82.241 115.437C82.6483 115.61 82.9603 115.857 83.177 116.178C83.3937 116.499 83.502 116.876 83.502 117.309C83.502 117.924 83.346 118.431 83.034 118.83C82.7307 119.229 82.332 119.523 81.838 119.714C81.344 119.905 80.8153 120 80.252 120H75.845ZM78.458 118.05H80.005C80.1523 118.05 80.2867 118.02 80.408 117.959C80.5293 117.898 80.6247 117.807 80.694 117.686C80.772 117.556 80.811 117.4 80.811 117.218C80.811 117.079 80.7893 116.962 80.746 116.867C80.7027 116.763 80.642 116.681 80.564 116.62C80.4947 116.551 80.408 116.499 80.304 116.464C80.2 116.429 80.0873 116.412 79.966 116.412H78.458V118.05ZM78.445 114.592H79.94C80.0267 114.592 80.1047 114.566 80.174 114.514C80.252 114.453 80.3127 114.38 80.356 114.293C80.408 114.198 80.434 114.094 80.434 113.981C80.434 113.73 80.3647 113.552 80.226 113.448C80.096 113.335 79.9573 113.279 79.81 113.279H78.445V114.592ZM84.4179 120V111.329H87.0309V120H84.4179ZM92.2706 120.195C91.4299 120.195 90.6846 120.052 90.0346 119.766C89.3846 119.471 88.8733 118.995 88.5006 118.336C88.1279 117.669 87.9416 116.78 87.9416 115.671C87.9416 114.588 88.1279 113.712 88.5006 113.045C88.8733 112.369 89.3846 111.879 90.0346 111.576C90.6846 111.264 91.4256 111.108 92.2576 111.108C92.8383 111.108 93.4016 111.169 93.9476 111.29C94.4936 111.403 95.0179 111.559 95.5206 111.758V114.072C94.9486 113.76 94.4373 113.517 93.9866 113.344C93.5446 113.162 93.0809 113.071 92.5956 113.071C92.1969 113.071 91.8459 113.145 91.5426 113.292C91.2479 113.431 91.0183 113.686 90.8536 114.059C90.6889 114.432 90.6066 114.965 90.6066 115.658C90.6066 116.334 90.6933 116.863 90.8666 117.244C91.0399 117.617 91.2653 117.881 91.5426 118.037C91.8286 118.184 92.1319 118.258 92.4526 118.258C92.6433 118.258 92.8123 118.245 92.9596 118.219C93.1156 118.193 93.2369 118.15 93.3236 118.089V116.958H92.1666V115.008H95.9236V119.155C95.3603 119.484 94.7666 119.74 94.1426 119.922C93.5273 120.104 92.9033 120.195 92.2706 120.195ZM104.262 120.195C102.849 120.195 101.766 119.835 101.012 119.116C100.258 118.388 99.8808 117.24 99.8808 115.671C99.8808 114.172 100.236 113.036 100.947 112.265C101.666 111.494 102.771 111.108 104.262 111.108C104.721 111.108 105.189 111.164 105.666 111.277C106.151 111.39 106.619 111.546 107.07 111.745V113.968C106.593 113.639 106.147 113.405 105.731 113.266C105.323 113.127 104.955 113.058 104.626 113.058C104.21 113.058 103.846 113.136 103.534 113.292C103.23 113.448 102.992 113.717 102.819 114.098C102.654 114.471 102.572 114.999 102.572 115.684C102.572 116.351 102.658 116.871 102.832 117.244C103.005 117.617 103.252 117.877 103.573 118.024C103.902 118.171 104.296 118.245 104.756 118.245C105.024 118.245 105.358 118.18 105.757 118.05C106.155 117.911 106.593 117.682 107.07 117.361V119.584C106.844 119.705 106.571 119.814 106.251 119.909C105.93 119.996 105.596 120.065 105.25 120.117C104.903 120.169 104.574 120.195 104.262 120.195ZM111.201 120.195C110.049 120.195 109.178 119.9 108.588 119.311C108.008 118.722 107.717 117.833 107.717 116.646C107.717 115.355 108.008 114.445 108.588 113.916C109.178 113.387 110.049 113.123 111.201 113.123C111.955 113.123 112.592 113.24 113.112 113.474C113.641 113.699 114.04 114.072 114.308 114.592C114.586 115.103 114.724 115.788 114.724 116.646C114.724 117.833 114.421 118.722 113.814 119.311C113.208 119.9 112.337 120.195 111.201 120.195ZM111.201 118.349C111.435 118.349 111.639 118.293 111.812 118.18C111.994 118.059 112.133 117.872 112.228 117.621C112.332 117.37 112.384 117.045 112.384 116.646C112.384 116.169 112.332 115.81 112.228 115.567C112.133 115.324 111.994 115.16 111.812 115.073C111.639 114.986 111.435 114.943 111.201 114.943C110.959 114.943 110.751 114.986 110.577 115.073C110.404 115.16 110.274 115.324 110.187 115.567C110.101 115.81 110.057 116.169 110.057 116.646C110.057 117.261 110.153 117.699 110.343 117.959C110.543 118.219 110.829 118.349 111.201 118.349ZM115.37 120V117.946H117.502V120H115.37Z" fill="white"/>
<path d="M67 109L72 115.5L67 122L62 115.5L67 109Z" fill="#4DE8E8"/>
</g>
<rect x="148" width="133" height="133" rx="10" fill="white"/>
<mask id="mask1_45_217" style="mask-type:alpha" maskUnits="userSpaceOnUse" x="153" y="5" width="123" height="123">
<rect x="153" y="5" width="123" height="123" rx="8" fill="#D9D9D9"/>
</mask>
<g mask="url(#mask1_45_217)">
<rect x="153" y="5" width="123" height="123" rx="8" fill="#71B8FA"/>
<rect x="215" y="5" width="61" height="123" fill="#D9D9D9"/>
<rect x="163" y="17" width="64" height="25" fill="#5E5CC2"/>
<line x1="163" y1="65" x2="204" y2="65" stroke="white" stroke-width="2"/>
<line x1="163" y1="80" x2="204" y2="80" stroke="white" stroke-width="2"/>
<line x1="163" y1="85" x2="188" y2="85" stroke="white" stroke-width="2"/>
<line x1="163" y1="70" x2="202" y2="70" stroke="white" stroke-width="2"/>
<line x1="163" y1="56.5" x2="196" y2="56.5" stroke="white" stroke-width="3"/>
<line x1="163" y1="75" x2="206" y2="75" stroke="white" stroke-width="2"/>
<line x1="163" y1="118" x2="206" y2="118" stroke="#5E5CC2" stroke-width="4"/>
<path d="M180.845 34V25.329H184.862C185.443 25.329 185.976 25.3983 186.461 25.537C186.946 25.6757 187.336 25.9227 187.631 26.278C187.934 26.6247 188.086 27.1187 188.086 27.76C188.086 28.1587 187.973 28.4967 187.748 28.774C187.523 29.0427 187.254 29.255 186.942 29.411C186.63 29.567 186.34 29.6797 186.071 29.749L185.772 29.164C186.353 29.164 186.842 29.255 187.241 29.437C187.648 29.6103 187.96 29.8573 188.177 30.178C188.394 30.4987 188.502 30.8757 188.502 31.309C188.502 31.9243 188.346 32.4313 188.034 32.83C187.731 33.2287 187.332 33.5233 186.838 33.714C186.344 33.9047 185.815 34 185.252 34H180.845ZM183.458 32.05H185.005C185.152 32.05 185.287 32.0197 185.408 31.959C185.529 31.8983 185.625 31.8073 185.694 31.686C185.772 31.556 185.811 31.4 185.811 31.218C185.811 31.0793 185.789 30.9623 185.746 30.867C185.703 30.763 185.642 30.6807 185.564 30.62C185.495 30.5507 185.408 30.4987 185.304 30.464C185.2 30.4293 185.087 30.412 184.966 30.412H183.458V32.05ZM183.445 28.592H184.94C185.027 28.592 185.105 28.566 185.174 28.514C185.252 28.4533 185.313 28.3797 185.356 28.293C185.408 28.1977 185.434 28.0937 185.434 27.981C185.434 27.7297 185.365 27.552 185.226 27.448C185.096 27.3353 184.957 27.279 184.81 27.279H183.445V28.592ZM189.418 34V25.329H192.031V34H189.418ZM197.271 34.195C196.43 34.195 195.685 34.052 195.035 33.766C194.385 33.4713 193.873 32.9947 193.501 32.336C193.128 31.6687 192.942 30.7803 192.942 29.671C192.942 28.5877 193.128 27.7123 193.501 27.045C193.873 26.369 194.385 25.8793 195.035 25.576C195.685 25.264 196.426 25.108 197.258 25.108C197.838 25.108 198.402 25.1687 198.948 25.29C199.494 25.4027 200.018 25.5587 200.521 25.758V28.072C199.949 27.76 199.437 27.5173 198.987 27.344C198.545 27.162 198.081 27.071 197.596 27.071C197.197 27.071 196.846 27.1447 196.543 27.292C196.248 27.4307 196.018 27.6863 195.854 28.059C195.689 28.4317 195.607 28.9647 195.607 29.658C195.607 30.334 195.693 30.8627 195.867 31.244C196.04 31.6167 196.265 31.881 196.543 32.037C196.829 32.1843 197.132 32.258 197.453 32.258C197.643 32.258 197.812 32.245 197.96 32.219C198.116 32.193 198.237 32.1497 198.324 32.089V30.958H197.167V29.008H200.924V33.155C200.36 33.4843 199.767 33.74 199.143 33.922C198.527 34.104 197.903 34.195 197.271 34.195ZM209.262 34.195C207.849 34.195 206.766 33.8353 206.012 33.116C205.258 32.388 204.881 31.2397 204.881 29.671C204.881 28.1717 205.236 27.0363 205.947 26.265C206.666 25.4937 207.771 25.108 209.262 25.108C209.721 25.108 210.189 25.1643 210.666 25.277C211.151 25.3897 211.619 25.5457 212.07 25.745V27.968C211.593 27.6387 211.147 27.4047 210.731 27.266C210.323 27.1273 209.955 27.058 209.626 27.058C209.21 27.058 208.846 27.136 208.534 27.292C208.23 27.448 207.992 27.7167 207.819 28.098C207.654 28.4707 207.572 28.9993 207.572 29.684C207.572 30.3513 207.658 30.8713 207.832 31.244C208.005 31.6167 208.252 31.8767 208.573 32.024C208.902 32.1713 209.296 32.245 209.756 32.245C210.024 32.245 210.358 32.18 210.757 32.05C211.155 31.9113 211.593 31.6817 212.07 31.361V33.584C211.844 33.7053 211.571 33.8137 211.251 33.909C210.93 33.9957 210.596 34.065 210.25 34.117C209.903 34.169 209.574 34.195 209.262 34.195ZM216.201 34.195C215.049 34.195 214.178 33.9003 213.588 33.311C213.008 32.7217 212.717 31.8333 212.717 30.646C212.717 29.3547 213.008 28.4447 213.588 27.916C214.178 27.3873 215.049 27.123 216.201 27.123C216.955 27.123 217.592 27.24 218.112 27.474C218.641 27.6993 219.04 28.072 219.308 28.592C219.586 29.1033 219.724 29.788 219.724 30.646C219.724 31.8333 219.421 32.7217 218.814 33.311C218.208 33.9003 217.337 34.195 216.201 34.195ZM216.201 32.349C216.435 32.349 216.639 32.2927 216.812 32.18C216.994 32.0587 217.133 31.8723 217.228 31.621C217.332 31.3697 217.384 31.0447 217.384 30.646C217.384 30.1693 217.332 29.8097 217.228 29.567C217.133 29.3243 216.994 29.1597 216.812 29.073C216.639 28.9863 216.435 28.943 216.201 28.943C215.959 28.943 215.751 28.9863 215.577 29.073C215.404 29.1597 215.274 29.3243 215.187 29.567C215.101 29.8097 215.057 30.1693 215.057 30.646C215.057 31.2613 215.153 31.699 215.343 31.959C215.543 32.219 215.829 32.349 216.201 32.349ZM220.37 34V31.946H222.502V34H220.37Z" fill="white"/>
<path d="M172 23L177 29.5L172 36L167 29.5L172 23Z" fill="#4DE8E8"/>
</g>
<path d="M307.068 122.191H298.987H296.811H296.341V111.351H299.886C300.785 111.351 301.316 110.329 300.785 109.594L293.889 100.051C293.45 99.4383 292.54 99.4383 292.101 100.051L285.205 109.594C284.673 110.329 285.195 111.351 286.104 111.351H289.649V122.191H289.179H287.003H277.634C272.271 121.894 268 116.878 268 111.443C268 107.693 270.033 104.424 273.047 102.657C272.771 101.911 272.628 101.114 272.628 100.276C272.628 96.4449 275.724 93.3492 279.555 93.3492C280.383 93.3492 281.179 93.4923 281.925 93.7681C284.142 89.0685 288.924 85.8094 294.481 85.8094C301.674 85.8196 307.6 91.3263 308.274 98.3451C313.801 99.2953 318 104.414 318 110.207C318 116.398 313.178 121.762 307.068 122.191Z" fill="#4DE8E8"/>
</svg>
