<svg width="146" height="146" viewBox="0 0 146 146" fill="none" xmlns="http://www.w3.org/2000/svg">
<path d="M36.9182 48.3592C31.8896 66.8221 14.9606 91.0589 36.2917 109.745C57.6227 128.432 77.2181 127.774 110.722 106.717C144.227 85.6611 124.811 37.8614 90.4843 23.4396C56.1577 9.0179 41.9468 29.8962 36.9182 48.3592Z" fill="#F3F4F6"/>
<g clip-path="url(#clip0_14_3)">
<path d="M101.438 47.8436H52.0385C50.9125 47.8436 50 48.7563 50 49.8822V88.1382C50 89.2641 50.9125 90.1767 52.0385 90.1767H78.675V86.0996H54.077V51.9207H99.3997V70.8109H103.477V49.8822C103.477 48.7563 102.564 47.8436 101.438 47.8436Z" fill="#5E5CC2"/>
<path d="M94.1676 43.7665C93.0417 43.7665 92.1292 44.679 92.1292 45.805V53.1436C92.1292 54.2695 93.0417 55.1821 94.1676 55.1821C95.2936 55.1821 96.2061 54.2695 96.2061 53.1436V45.805C96.2061 44.679 95.2936 43.7665 94.1676 43.7665Z" fill="#5E5CC2"/>
<path d="M59.3091 43.7665C58.1832 43.7665 57.2707 44.679 57.2707 45.805V53.1436C57.2707 54.2695 58.1832 55.1821 59.3091 55.1821C60.4351 55.1821 61.3476 54.2695 61.3476 53.1436V45.805C61.3476 44.679 60.4351 43.7665 59.3091 43.7665Z" fill="#5E5CC2"/>
<path d="M73.171 60.686H70.7928C69.6669 60.686 68.7543 61.5986 68.7543 62.7245C68.7543 63.8504 69.6669 64.763 70.7928 64.763H73.171C74.297 64.763 75.2095 63.8504 75.2095 62.7245C75.2095 61.5986 74.297 60.686 73.171 60.686Z" fill="#5E5CC2"/>
<path d="M63.658 60.686H61.2798C60.1538 60.686 59.2413 61.5986 59.2413 62.7245C59.2413 63.8504 60.1538 64.763 61.2798 64.763H63.658C64.7839 64.763 65.6965 63.8504 65.6965 62.7245C65.6965 61.5986 64.7839 60.686 63.658 60.686Z" fill="#5E5CC2"/>
<path d="M82.6841 60.686H80.3059C79.1799 60.686 78.2674 61.5986 78.2674 62.7245C78.2674 63.8504 79.1799 64.763 80.3059 64.763H82.6841C83.81 64.763 84.7225 63.8504 84.7225 62.7245C84.7225 61.5986 83.81 60.686 82.6841 60.686Z" fill="#5E5CC2"/>
<path d="M92.1971 60.686H89.8189C88.693 60.686 87.7804 61.5986 87.7804 62.7245C87.7804 63.8504 88.693 64.763 89.8189 64.763H92.1971C93.3231 64.763 94.2356 63.8504 94.2356 62.7245C94.2356 61.5986 93.3231 60.686 92.1971 60.686Z" fill="#5E5CC2"/>
<path d="M73.171 68.6364H70.7928C69.6669 68.6364 68.7543 69.5489 68.7543 70.6748C68.7543 71.8008 69.6669 72.7133 70.7928 72.7133H73.171C74.297 72.7133 75.2095 71.8008 75.2095 70.6748C75.2095 69.5489 74.297 68.6364 73.171 68.6364Z" fill="#5E5CC2"/>
<path d="M63.658 68.6364H61.2798C60.1538 68.6364 59.2413 69.5489 59.2413 70.6748C59.2413 71.8008 60.1538 72.7133 61.2798 72.7133H63.658C64.7839 72.7133 65.6965 71.8008 65.6965 70.6748C65.6965 69.5489 64.7839 68.6364 63.658 68.6364Z" fill="#5E5CC2"/>
<path d="M82.6841 68.6364H80.3059C79.1799 68.6364 78.2674 69.5489 78.2674 70.6748C78.2674 71.8008 79.1799 72.7133 80.3059 72.7133H82.6841C83.81 72.7133 84.7225 71.8008 84.7225 70.6748C84.7225 69.5489 83.81 68.6364 82.6841 68.6364Z" fill="#5E5CC2"/>
<path d="M73.171 76.5186H70.7928C69.6669 76.5186 68.7543 77.4311 68.7543 78.557C68.7543 79.683 69.6669 80.5955 70.7928 80.5955H73.171C74.297 80.5955 75.2095 79.683 75.2095 78.557C75.2095 77.4312 74.297 76.5186 73.171 76.5186Z" fill="#5E5CC2"/>
<path d="M63.658 76.5186H61.2798C60.1538 76.5186 59.2413 77.4311 59.2413 78.557C59.2413 79.683 60.1538 80.5955 61.2798 80.5955H63.658C64.7839 80.5955 65.6965 79.683 65.6965 78.557C65.6965 77.4312 64.7839 76.5186 63.658 76.5186Z" fill="#5E5CC2"/>
<path d="M92.8766 65.9871C83.4342 65.9871 75.7531 73.6681 75.7531 83.1105C75.7531 92.5515 83.4342 100.233 92.8766 100.233C102.318 100.233 110 92.5515 110 83.1105C110 73.6688 102.319 65.9871 92.8766 65.9871ZM92.8766 96.1563C85.6827 96.1563 79.8301 90.3037 79.8301 83.1098C79.8301 75.9159 85.6827 70.0633 92.8766 70.0633C100.07 70.0633 105.923 75.9159 105.923 83.1098C105.923 90.3037 100.07 96.1563 92.8766 96.1563Z" fill="#5E5CC2"/>
<path d="M98.4485 82.2943H94.1676V75.975C94.1676 74.8491 93.2551 73.9365 92.1292 73.9365C91.0032 73.9365 90.0907 74.8491 90.0907 75.975V84.3328C90.0907 85.4587 91.0032 86.3713 92.1292 86.3713H98.4485C99.5744 86.3713 100.487 85.4587 100.487 84.3328C100.487 83.2069 99.5744 82.2943 98.4485 82.2943Z" fill="#5E5CC2"/>
</g>
<defs>
<clipPath id="clip0_14_3">
<rect width="60" height="60" fill="white" transform="translate(50 41.9999)"/>
</clipPath>
</defs>
</svg>
