<svg width="102" height="105" viewBox="0 0 102 105" fill="none" xmlns="http://www.w3.org/2000/svg">
<path d="M92.4089 40.7796C81.4052 25.1244 73.5521 -3.37725 45.5521 1.1172C17.5521 5.61165 5.55203 21.1169 0.377389 60.3486C-4.79725 99.5804 44.3925 115.142 77.4038 97.9211C110.415 80.7004 103.413 56.4348 92.4089 40.7796Z" fill="#F3F4F6"/>
<g clip-path="url(#clip0_14_2)">
<path d="M57.6905 52.0398L56.0595 55.568L62.9278 58.743L64.5588 55.2147L57.6905 52.0398Z" fill="#5E5CC2"/>
<path d="M49.1016 38.8379C43.2422 38.8379 38.4753 43.6048 38.4753 49.4642C38.4753 55.3236 43.2422 60.0905 49.1016 60.0905C54.9609 60.0905 59.7273 55.3236 59.7273 49.4642C59.7273 43.6048 54.9609 38.8379 49.1016 38.8379ZM49.1016 56.2028C45.3863 56.2028 42.3629 53.1801 42.3629 49.4642C42.3629 45.7489 45.3857 42.7256 49.1016 42.7256C52.8169 42.7256 55.8396 45.7483 55.8396 49.4642C55.8395 53.1795 52.8169 56.2028 49.1016 56.2028Z" fill="#5E5CC2"/>
<path d="M35.0411 23.9999C30.5748 23.9999 26.9417 27.6329 26.9417 32.0992C26.9417 36.5654 30.5747 40.1986 35.0411 40.1986C39.5067 40.1986 43.1404 36.5655 43.1404 32.0992C43.1404 27.6329 39.5073 23.9999 35.0411 23.9999ZM35.0411 36.3109C32.7188 36.3109 30.8293 34.4215 30.8293 32.0992C30.8293 29.777 32.7188 27.8875 35.0411 27.8875C37.3633 27.8875 39.2528 29.7769 39.2528 32.0992C39.2527 34.4215 37.3633 36.3109 35.0411 36.3109Z" fill="#5E5CC2"/>
<path d="M66.2721 25.7494C61.8059 25.7494 58.1728 29.3824 58.1728 33.8488C58.1728 38.3152 61.8059 41.9481 66.2721 41.9481C70.7384 41.9481 74.3715 38.3144 74.3715 33.8488C74.3715 29.383 70.7385 25.7494 66.2721 25.7494ZM66.2721 38.0604C63.9499 38.0604 62.0604 36.171 62.0604 33.8487C62.0604 31.5264 63.9498 29.637 66.2721 29.637C68.5944 29.637 70.4838 31.5264 70.4838 33.8487C70.4838 36.171 68.5944 38.0604 66.2721 38.0604Z" fill="#5E5CC2"/>
<path d="M26.6177 50.3715C22.1515 50.3715 18.5184 54.0045 18.5184 58.4709C18.5184 62.9372 22.1515 66.5702 26.6177 66.5702C31.0834 66.5702 34.7171 62.9371 34.7171 58.4709C34.7171 54.0046 31.084 50.3715 26.6177 50.3715ZM26.6177 62.6825C24.2955 62.6825 22.406 60.7931 22.406 58.4707C22.406 56.1486 24.2954 54.259 26.6177 54.259C28.94 54.259 30.8294 56.1484 30.8294 58.4707C30.8293 60.7931 28.9399 62.6825 26.6177 62.6825Z" fill="#5E5CC2"/>
<path d="M49.4255 67.8011C44.9592 67.8011 41.3262 71.4342 41.3262 75.9004C41.3262 80.3667 44.9592 83.9999 49.4255 83.9999C53.8917 83.9999 57.5249 80.3668 57.5249 75.9004C57.5249 71.4342 53.8918 67.8011 49.4255 67.8011ZM49.4255 80.1122C47.1033 80.1122 45.2139 78.2228 45.2139 75.9004C45.2139 73.5783 47.1033 71.6887 49.4255 71.6887C51.7478 71.6887 53.6372 73.5781 53.6372 75.9004C53.6372 78.2228 51.7478 80.1122 49.4255 80.1122Z" fill="#5E5CC2"/>
<path d="M69.3823 51.408C64.916 51.408 61.2828 55.041 61.2828 59.5074C61.2828 63.9737 64.9159 67.6067 69.3823 67.6067C73.8479 67.6067 77.4815 63.9736 77.4815 59.5074C77.4815 55.0411 73.8486 51.408 69.3823 51.408ZM69.3823 63.719C67.0599 63.719 65.1705 61.8296 65.1705 59.5073C65.1705 57.185 67.0599 55.2955 69.3823 55.2955C71.7044 55.2955 73.594 57.185 73.594 59.5073C73.594 61.8296 71.7046 63.719 69.3823 63.719Z" fill="#5E5CC2"/>
<path d="M40.268 51.1666L31.7141 54.6654L33.1861 58.264L41.7399 54.7652L40.268 51.1666Z" fill="#5E5CC2"/>
<path d="M50.7203 57.9636L46.8343 58.0706L47.1587 69.8627L51.0447 69.7558L50.7203 57.9636Z" fill="#5E5CC2"/>
<path d="M60.263 36.4277L53.719 41.2233L56.017 44.3591L62.561 39.5635L60.263 36.4277Z" fill="#5E5CC2"/>
<path d="M40.6221 35.4603L37.6269 37.9392L42.2925 43.5765L45.2877 41.0977L40.6221 35.4603Z" fill="#5E5CC2"/>
</g>
<defs>
<clipPath id="clip0_14_2">
<rect width="60" height="60" fill="white" transform="translate(18 23.9999)"/>
</clipPath>
</defs>
</svg>
