<svg width="146" height="146" viewBox="0 0 146 146" fill="none" xmlns="http://www.w3.org/2000/svg">
<path d="M51.6167 34.9574C70.4504 31.5723 96.0823 16.8407 112.82 39.7327C129.558 62.6247 127.179 82.0862 103.257 113.609C79.3354 145.131 33.4288 121.586 22.0822 86.1241C10.7356 50.6621 32.7829 38.3425 51.6167 34.9574Z" fill="#F3F4F6"/>
<g clip-path="url(#clip0_14_4)">
<path d="M89.1334 55.8398H56.8666C55.6516 55.8398 54.6666 56.8247 54.6666 58.0399V87.9599C54.6666 89.175 55.6514 90.16 56.8666 90.16H89.1333C90.3484 90.16 91.3333 89.1751 91.3333 87.9599V58.0399C91.3333 56.8247 90.3485 55.8398 89.1334 55.8398ZM86.9334 85.7599H59.0667V60.2398H86.9334V85.7599Z" fill="#5E5CC2"/>
<path d="M49.5334 59.5065C48.3182 59.5065 47.3334 60.4913 47.3334 61.7065V84.2932C47.3334 85.5084 48.3182 86.4932 49.5334 86.4932C50.7485 86.4932 51.7335 85.5084 51.7335 84.2932V61.7065C51.7333 60.4914 50.7485 59.5065 49.5334 59.5065Z" fill="#5E5CC2"/>
<path d="M42.2001 63.1732C40.9849 63.1732 40 64.1581 40 65.3733V80.6266C40 81.8417 40.9849 82.8266 42.2001 82.8266C43.4153 82.8266 44.4001 81.8418 44.4001 80.6266V65.3733C44.4 64.1581 43.4151 63.1732 42.2001 63.1732Z" fill="#5E5CC2"/>
<path d="M96.4666 59.5065C95.2516 59.5065 94.2666 60.4913 94.2666 61.7065V84.2932C94.2666 85.5084 95.2514 86.4932 96.4666 86.4932C97.6818 86.4932 98.6667 85.5084 98.6667 84.2932V61.7065C98.6667 60.4914 97.6818 59.5065 96.4666 59.5065Z" fill="#5E5CC2"/>
<path d="M103.8 63.1732C102.585 63.1732 101.6 64.1581 101.6 65.3733V80.6266C101.6 81.8417 102.585 82.8266 103.8 82.8266C105.015 82.8266 106 81.8417 106 80.6265V65.3733C106 64.1581 105.015 63.1732 103.8 63.1732Z" fill="#5E5CC2"/>
</g>
<defs>
<clipPath id="clip0_14_4">
<rect width="66" height="66" fill="white" transform="translate(40 39.9999)"/>
</clipPath>
</defs>
</svg>
