<svg width="99" height="85" viewBox="0 0 99 85" fill="none" xmlns="http://www.w3.org/2000/svg">
<path d="M98.8972 42.4906L74.3632 0H25.3008L49.832 42.4933L98.8972 42.4906Z" fill="#71B8FA"/>
<path d="M25.3008 84.9812H74.3632L98.8972 42.4906H49.832L25.3008 84.9812Z" fill="#1C2B45"/>
<path d="M73.3067 40.6593H24.2389L23.6785 39.686H72.7463L73.3067 40.6593ZM71.049 36.7473H21.9812L22.5443 37.7206H71.6121L71.049 36.7473ZM69.3545 33.7978H20.2867L20.847 34.7711H69.9148L69.3545 33.7978ZM67.6599 30.8484H18.5921L19.1552 31.8244H68.223L67.6599 30.8484ZM65.9653 27.915H16.8975L17.4606 28.891H66.5284L65.9653 27.915ZM64.2681 24.9656H15.2002L15.7633 25.9416H64.8311L64.2681 24.9656ZM62.5735 22.0323H13.5056L14.0687 23.0083H63.1365L62.5735 22.0323ZM60.8789 19.0828H11.811L12.3741 20.0588H61.442L60.8789 19.0828ZM59.1843 16.1468H10.1165L10.6795 17.1201H59.7474L59.1843 16.1468ZM57.4897 13.2108H8.42186L8.98496 14.1868H58.0528L57.4897 13.2108ZM55.7924 10.2614H6.72461L7.28767 11.2347H56.3555L55.7924 10.2614ZM54.0978 7.32533H5.03004L5.59311 8.30133H54.6609L54.0978 7.32533ZM52.4033 4.38931H3.33544L3.89582 5.36262H52.9636L52.4033 4.38931ZM50.7087 1.45328H1.64087L2.20394 2.42928H51.2717L50.7087 1.45328Z" fill="#1C2B45"/>
<path d="M2.25227 80.7206H51.3201L50.757 81.6966H1.6892L2.25227 80.7206ZM3.3838 78.7579H52.4516L53.0147 77.7819H3.94687L3.3838 78.7579ZM0.563067 83.7022H49.6309L49.0678 84.6755H0L0.563067 83.7022ZM5.08105 75.8245H54.1489L54.712 74.8512H5.64412L5.08105 75.8245ZM6.77562 72.8751H55.8435L56.4066 71.9018H7.33872L6.77562 72.8751ZM8.46754 69.9444H57.5354L58.0985 68.9711H9.03061L8.46754 69.9444ZM10.1621 67.0084H59.23L59.793 66.0351H10.7252L10.1621 67.0084ZM11.8567 64.059H60.9245L61.4876 63.083H12.4198L11.8567 64.059ZM13.5513 61.1095H62.6191L63.1822 60.1362H14.1144L13.5513 61.1095ZM15.2459 58.1735H64.3137L64.8741 57.1975H15.8063L15.2459 58.1735ZM16.9432 55.2241H66.011L66.574 54.2481H17.5062L16.9432 55.2241ZM18.6377 52.2881H67.7055L68.2686 51.3121H19.1927L18.6377 52.2881ZM20.3323 49.3386H69.4001L69.9632 48.3653H20.8954L20.3323 49.3386ZM22.0269 46.3892H71.0947L71.6578 45.4159H22.5899L22.0269 46.3892ZM23.7214 43.4532H72.7893L73.3524 42.4799H24.2872L23.7214 43.4532Z" fill="#5E5CC2"/>
</svg>
