<svg width="29" height="29" viewBox="0 0 29 29" fill="none" xmlns="http://www.w3.org/2000/svg">
<g clip-path="url(#clip0_2_574)">
<path d="M14.5 0C22.5081 0 29 6.49187 29 14.5C29 22.5081 22.5081 29 14.5 29C6.49187 29 0 22.5081 0 14.5C0 6.49187 6.49187 0 14.5 0ZM15.6501 9.00074L14.3533 9.00074L13.6955 9.00299L13.0379 9.00679C11.2926 9.01907 9.645 9.0485 8.862 9.09927C7.78538 9.15927 7.25437 9.31309 6.76162 10.1564C6.25875 10.9975 6 12.4462 6 14.9967V15.0055C6 17.5451 6.25875 19.0047 6.76162 19.8371C7.25437 20.6793 7.78425 20.832 8.86088 20.9029C9.64469 20.9473 11.2925 20.9785 13.0379 20.9922L14.0249 20.998C14.354 20.9993 14.6815 21 15.0022 21C15.3224 21 15.6493 20.9993 15.9779 20.998L16.6358 20.9946C18.4977 20.9824 20.3055 20.9504 21.1391 20.904C22.218 20.8331 22.7479 20.6804 23.2361 19.8382C23.7435 19.0058 24 17.5462 24 15.0065V14.9978C24 12.4462 23.7435 10.9975 23.235 10.1564C22.7467 9.31418 22.2169 9.15927 21.138 9.10036C20.1582 9.0359 17.8294 9.0057 15.6501 9.00074Z" fill="#F2F4F8"/>
<path d="M13 18.5V11.5L19 15L13 18.5Z" fill="#F2F4F8"/>
</g>
<defs>
<clipPath id="clip0_2_574">
<rect width="29" height="29" fill="white"/>
</clipPath>
</defs>
</svg>
