<svg width="284" height="96" viewBox="0 0 284 96" fill="none" xmlns="http://www.w3.org/2000/svg">
<path d="M160.308 92.7041L130.02 82.6106C124.23 80.6783 121.087 74.395 123.012 68.6056L125.351 61.5976C125.996 59.6619 128.073 58.6091 130.02 59.2652C131.952 59.9104 132.997 61.9978 132.352 63.9336L130.016 70.9379C129.375 72.8665 130.423 74.9645 132.356 75.6097L162.644 85.7035C164.574 86.3342 166.66 85.3198 167.316 83.3676L169.645 76.3633C170.29 74.4309 172.37 73.4 174.316 74.0273C176.249 74.6726 177.294 76.7634 176.652 78.6992L174.32 85.7035C172.379 91.5123 166.098 94.6463 160.308 92.7041Z" fill="#1C2B45"/>
<path d="M205.436 3.9248V92.0751L94.2018 55.161V40.8389L205.436 3.9248Z" fill="#7876D5"/>
<path d="M205.436 48V92.0751L94.2018 55.1611V48H205.436Z" fill="#5E5CC2"/>
<path d="M102.766 33.2344V62.7656C102.766 64.8331 101.142 66.457 99.0742 66.457H91.6914C89.624 66.457 88 64.8331 88 62.7656V33.2344C88 31.1669 89.624 29.543 91.6914 29.543H99.0742C101.142 29.543 102.766 31.1669 102.766 33.2344Z" fill="#9896F0"/>
<path d="M214 3.70312V92.2969C214 94.3643 212.376 95.9883 210.309 95.9883H202.926C200.858 95.9883 199.234 94.3643 199.234 92.2969V3.70312C199.234 1.63569 200.858 0.0117188 202.926 0.0117188H210.309C212.376 0.0117188 214 1.63569 214 3.70312Z" fill="#9896F0"/>
<path d="M88 48H102.766V62.7656C102.766 64.8331 101.142 66.457 99.0742 66.457H91.6914C89.624 66.457 88 64.8331 88 62.7656V48Z" fill="#7876D4"/>
<path d="M214 48V92.2969C214 94.3643 212.376 95.9883 210.309 95.9883H202.926C200.858 95.9883 199.234 94.3643 199.234 92.2969V48H214Z" fill="#7876D4"/>
<circle cx="12.5" cy="27.5" r="12.5" fill="#5E5CC2"/>
<circle cx="12.5" cy="67.5" r="12.5" fill="#4DE8E8"/>
<circle cx="43.5" cy="47.5" r="12.5" fill="#71B8FA"/>
<line x1="65" y1="48" x2="77" y2="48" stroke="black" stroke-width="2" stroke-linecap="round" stroke-dasharray="1 5"/>
<path d="M235 23L267 4" stroke="#4DE8E8" stroke-width="3" stroke-linecap="round"/>
<path d="M240.79 49.6976H268.036M239.428 63.1247L282 72.188M235 75.2091L268.036 93M239.428 36.2705L282 23" stroke="#4DE8E8" stroke-width="3" stroke-linecap="round"/>
</svg>
